# xmcd
# 
# Track frame offsets:
#     150
#     21557
#     38876
#     54697
#     70592
#     92013
#     110961
#     135220
#     150297
#     168461
#     184973
#     198619
# 
# Disc length: 3005
# 
# Revision: 0
# Processed by: cddbd v1.5.2PL0 Copyright (c) Steve Scherf et al.
# Submitted via: fre:ac v1.0.31
# 
DISCID=a50bbb0c
DTITLE=Paper Route - Absence
DYEAR=2009
DGENRE=
TTITLE0=Enemry Among Us
TTITLE1=Wish
TTITLE2=Carousel
TTITLE3=Good Intentions
TTITLE4=Tiger Teeth
TTITLE5=Be Healed
TTITLE6=Last Time
TTITLE7=No Sudden Revelations
TTITLE8=Gutter
TTITLE9=Are We Al Forgotten
TTITLE10=Lovers Anthem
TTITLE11=Dance On Our Graves
EXTD=
EXTT0=
EXTT1=
EXTT2=
EXTT3=
EXTT4=
EXTT5=
EXTT6=
EXTT7=
EXTT8=
EXTT9=
EXTT10=
EXTT11=
PLAYORDER=
